# xmcd CD database file
#
# Track frame offsets:
#	150
#	14061
#	29817
#	57767
#	82654
#	97237
#	119208
#	125168
#	152070
#	170992
#	190299
#	202865
#	236618
#	240531
#	266820
#
# Disc length: 3907 seconds
#
# Revision: 0
# Processed by: cddbd v1.5.1PL0 Copyright (c) Steve Scherf et al.
# Submitted via: CDex 1.51
#
DISCID=df0f410f
DTITLE=Kali. Z. Fasteau - Making Waves
DYEAR=2004
DGENRE=Jazz
TTITLE0=Whalesong
TTITLE1=Eye of the Storm
TTITLE2=Ocean of Moonrise
TTITLE3=High Seas
TTITLE4=Wind Caresses Water
TTITLE5=Cascades
TTITLE6=Diving into the Curl
TTITLE7=Sea Legs
TTITLE8=Celestial Tides
TTITLE9=Riding the Crests
TTITLE10=Dolphin Love
TTITLE11=Many Rivers
TTITLE12=Silken Stream
TTITLE13=Reefing
TTITLE14=Yemaya - La Sirene
EXTD=YEAR: 2004
EXTT0=
EXTT1=
EXTT2=
EXTT3=
EXTT4=
EXTT5=
EXTT6=
EXTT7=
EXTT8=
EXTT9=
EXTT10=
EXTT11=
EXTT12=
EXTT13=
EXTT14=
PLAYORDER=
